<svg width="1277" height="152" viewBox="0 0 1277 152" fill="none" xmlns="http://www.w3.org/2000/svg">
<g opacity="0.55">
<mask id="path-1-outside-1_173_211" maskUnits="userSpaceOnUse" x="0.000244141" y="0.92041" width="1277" height="151" fill="black">
<rect fill="white" x="0.000244141" y="0.92041" width="1277" height="151"/>
<path d="M1.04157 146.92V5.32041H51.4866C66.1186 5.32041 77.5056 8.74241 85.6476 15.5864C93.7896 22.3124 97.8606 31.7524 97.8606 43.9064C97.8606 50.0424 96.2086 55.5294 92.9046 60.3674C89.6006 65.0874 84.9396 68.6274 78.9216 70.9874V73.8194C85.7656 76.1794 91.0756 80.2504 94.8516 86.0324C98.7456 91.6964 100.693 98.5404 100.693 106.564C100.693 119.19 96.3856 129.102 87.7716 136.3C79.1576 143.38 67.2396 146.92 52.0176 146.92H1.04157ZM30.9546 119.131H51.6636C57.9176 119.131 62.6966 117.833 66.0006 115.237C69.4226 112.523 71.1336 108.747 71.1336 103.909C71.1336 98.9534 69.4226 95.1184 66.0006 92.4044C62.6966 89.5724 57.9176 88.1564 51.6636 88.1564H30.9546V119.131ZM30.9546 62.6684H51.1326C57.2686 62.6684 61.9296 61.4294 65.1156 58.9514C68.4196 56.3554 70.0716 52.6974 70.0716 47.9774C70.0716 43.2574 68.4196 39.5994 65.1156 37.0034C61.9296 34.4074 57.2686 33.1094 51.1326 33.1094H30.9546V62.6684ZM141.26 146.92V5.32041H171.173V118.6H229.76V146.92H141.26ZM257.584 5.32041H287.497V96.2984C287.497 104.794 289.444 111.402 293.338 116.122C297.232 120.724 302.601 123.025 309.445 123.025C316.525 123.025 321.953 120.665 325.729 115.945C329.623 111.107 331.57 104.322 331.57 95.5904V5.32041H360.244V97.1834C360.244 114.175 355.819 127.273 346.969 136.477C338.237 145.681 325.552 150.283 308.914 150.283C292.276 150.283 279.532 145.681 270.682 136.477C261.95 127.273 257.584 114.175 257.584 97.1834V5.32041ZM392.138 146.92V5.32041H446.831C456.389 5.32041 464.708 7.14941 471.788 10.8074C478.868 14.3474 484.355 19.4804 488.249 26.2064C492.261 32.8144 494.267 40.5434 494.267 49.3934C494.267 57.6534 492.261 64.9104 488.249 71.1644C484.237 77.3004 478.632 82.0794 471.434 85.5014C464.354 88.9234 456.153 90.6344 446.831 90.6344H422.051V146.92H392.138ZM464.177 146.92L428.954 85.8554H460.814L497.807 146.92H464.177ZM422.051 65.6774H446.123C451.787 65.6774 456.212 64.2614 459.398 61.4294C462.702 58.4794 464.354 54.5264 464.354 49.5704C464.354 44.6144 462.702 40.7204 459.398 37.8884C456.212 34.9384 451.787 33.4634 446.123 33.4634H422.051V65.6774ZM523.153 146.92V5.32041H577.846C587.404 5.32041 595.723 7.14941 602.803 10.8074C609.883 14.3474 615.37 19.4804 619.264 26.2064C623.276 32.8144 625.282 40.5434 625.282 49.3934C625.282 57.6534 623.276 64.9104 619.264 71.1644C615.252 77.3004 609.647 82.0794 602.449 85.5014C595.369 88.9234 587.168 90.6344 577.846 90.6344H553.066V146.92H523.153ZM595.192 146.92L559.969 85.8554H591.829L628.822 146.92H595.192ZM553.066 65.6774H577.138C582.802 65.6774 587.227 64.2614 590.413 61.4294C593.717 58.4794 595.369 54.5264 595.369 49.5704C595.369 44.6144 593.717 40.7204 590.413 37.8884C587.227 34.9384 582.802 33.4634 577.138 33.4634H553.066V65.6774ZM675.761 5.32041L699.656 54.8804L701.603 67.0934H704.789L706.736 54.8804L730.985 5.32041H760.898L717.179 92.7584V146.92H687.266V92.7584L643.724 5.32041H675.761ZM792.262 146.92V5.32041H884.833V33.6404H822.175V66.7394H875.983V92.5814H822.175V146.92H792.262ZM907.17 146.92L939.03 5.32041H988.944L1020.8 146.92H990.714L964.695 27.0914H961.686L935.313 146.92H907.17ZM930.711 105.502V77.1824H997.263V105.502H930.711ZM1097.48 150.283C1079.78 150.283 1066.33 144.029 1057.12 131.521C1047.92 119.013 1043.32 100.546 1043.32 76.1204C1043.32 51.6944 1048.04 33.2274 1057.48 20.7194C1066.92 8.2114 1080.78 1.9574 1099.07 1.9574C1109.34 1.9574 1118.19 4.0814 1125.62 8.3294C1133.06 12.5774 1138.9 18.7724 1143.15 26.9144C1147.51 35.0564 1149.99 44.9094 1150.58 56.4734H1123.32C1121.55 47.3874 1118.66 40.6024 1114.65 36.1184C1110.75 31.5164 1105.56 29.2154 1099.07 29.2154C1090.34 29.2154 1083.85 33.1094 1079.6 40.8974C1075.35 48.5674 1073.23 60.3084 1073.23 76.1204C1073.23 91.9324 1075.24 103.732 1079.25 111.52C1083.26 119.19 1089.34 123.025 1097.48 123.025C1103.5 123.025 1108.39 120.901 1112.17 116.653C1116.06 112.405 1118.9 106.092 1120.67 97.7144H1147.92C1147.22 108.806 1144.74 118.305 1140.49 126.211C1136.24 133.999 1130.46 139.958 1123.14 144.088C1115.95 148.218 1107.39 150.283 1097.48 150.283ZM1183.18 146.92V5.32041H1275.75V31.1624H1213.09V63.7304H1266.9V88.8644H1213.09V121.078H1273.98V146.92H1183.18Z"/>
</mask>
<path d="M1.04157 146.92H0.0415707V147.92H1.04157V146.92ZM1.04157 5.32041V4.32041H0.0415707V5.32041H1.04157ZM85.6476 15.5864L85.0041 16.3519L85.0107 16.3574L85.6476 15.5864ZM92.9046 60.3674L93.7239 60.9409L93.7304 60.9314L92.9046 60.3674ZM78.9216 70.9874L78.5565 70.0564L77.9216 70.3054V70.9874H78.9216ZM78.9216 73.8194H77.9216V74.5324L78.5956 74.7648L78.9216 73.8194ZM94.8516 86.0324L94.0143 86.5792L94.0208 86.5891L94.0275 86.5989L94.8516 86.0324ZM87.7716 136.3L88.4066 137.073L88.4128 137.068L87.7716 136.3ZM30.9546 119.131H29.9546V120.131H30.9546V119.131ZM66.0006 115.237L66.6184 116.024L66.622 116.021L66.0006 115.237ZM66.0006 92.4044L65.3498 93.1637L65.3643 93.1761L65.3792 93.1879L66.0006 92.4044ZM30.9546 88.1564V87.1564H29.9546V88.1564H30.9546ZM30.9546 62.6684H29.9546V63.6684H30.9546V62.6684ZM65.1156 58.9514L65.7295 59.7408L65.7334 59.7377L65.1156 58.9514ZM65.1156 37.0034L64.4839 37.7786L64.4908 37.7842L64.4977 37.7897L65.1156 37.0034ZM30.9546 33.1094V32.1094H29.9546V33.1094H30.9546ZM1.04157 146.92H2.04157V5.32041H1.04157H0.0415707V146.92H1.04157ZM1.04157 5.32041V6.32041H51.4866V5.32041V4.32041H1.04157V5.32041ZM51.4866 5.32041V6.32041C65.9713 6.32041 77.0999 9.70775 85.0041 16.3519L85.6476 15.5864L86.291 14.8209C77.9113 7.77706 66.2659 4.32041 51.4866 4.32041V5.32041ZM85.6476 15.5864L85.0107 16.3574C92.8865 22.8635 96.8606 32.0003 96.8606 43.9064H97.8606H98.8606C98.8606 31.5045 94.6926 21.7613 86.2845 14.8154L85.6476 15.5864ZM97.8606 43.9064H96.8606C96.8606 49.8513 95.2637 55.1398 92.0788 59.8034L92.9046 60.3674L93.7304 60.9314C97.1534 55.9191 98.8606 50.2336 98.8606 43.9064H97.8606ZM92.9046 60.3674L92.0853 59.7939C88.9077 64.3334 84.4144 67.7592 78.5565 70.0564L78.9216 70.9874L79.2867 71.9184C85.4648 69.4956 90.2935 65.8414 93.7238 60.9409L92.9046 60.3674ZM78.9216 70.9874H77.9216V73.8194H78.9216H79.9216V70.9874H78.9216ZM78.9216 73.8194L78.5956 74.7648C85.2405 77.0561 90.3659 80.9926 94.0143 86.5792L94.8516 86.0324L95.6889 85.4856C91.7853 79.5082 86.2906 75.3027 79.2476 72.874L78.9216 73.8194ZM94.8516 86.0324L94.0275 86.5989C97.7887 92.0697 99.6926 98.7079 99.6926 106.564H100.693H101.693C101.693 98.3729 99.7025 91.3231 95.6756 85.4659L94.8516 86.0324ZM100.693 106.564H99.6926C99.6926 118.936 95.4869 128.55 87.1304 135.533L87.7716 136.3L88.4128 137.068C97.2843 129.655 101.693 119.445 101.693 106.564H100.693ZM87.7716 136.3L87.1366 135.528C78.7573 142.415 67.0922 145.92 52.0176 145.92V146.92V147.92C67.3869 147.92 79.5578 144.346 88.4065 137.073L87.7716 136.3ZM52.0176 146.92V145.92H1.04157V146.92V147.92H52.0176V146.92ZM30.9546 119.131V120.131H51.6636V119.131V118.131H30.9546V119.131ZM51.6636 119.131V120.131C58.0367 120.131 63.0704 118.811 66.6184 116.024L66.0006 115.237L65.3828 114.451C62.3227 116.855 57.7984 118.131 51.6636 118.131V119.131ZM66.0006 115.237L66.622 116.021C70.3111 113.095 72.1336 109.015 72.1336 103.909H71.1336H70.1336C70.1336 108.48 68.5341 111.952 65.3792 114.454L66.0006 115.237ZM71.1336 103.909H72.1336C72.1336 98.6947 70.3174 94.5518 66.622 91.6209L66.0006 92.4044L65.3792 93.1879C68.5278 95.685 70.1336 99.2121 70.1336 103.909H71.1336ZM66.0006 92.4044L66.6514 91.6451C63.1011 88.602 58.0537 87.1564 51.6636 87.1564V88.1564V89.1564C57.7814 89.1564 62.2921 90.5428 65.3498 93.1637L66.0006 92.4044ZM51.6636 88.1564V87.1564H30.9546V88.1564V89.1564H51.6636V88.1564ZM30.9546 88.1564H29.9546V119.131H30.9546H31.9546V88.1564H30.9546ZM30.9546 62.6684V63.6684H51.1326V62.6684V61.6684H30.9546V62.6684ZM51.1326 62.6684V63.6684C57.3811 63.6684 62.2975 62.4101 65.7295 59.7408L65.1156 58.9514L64.5016 58.1621C61.5617 60.4487 57.1561 61.6684 51.1326 61.6684V62.6684ZM65.1156 58.9514L65.7334 59.7377C69.3106 56.927 71.0716 52.9612 71.0716 47.9774H70.0716H69.0716C69.0716 52.4336 67.5285 55.7838 64.4977 58.1651L65.1156 58.9514ZM70.0716 47.9774H71.0716C71.0716 42.9936 69.3106 39.0278 65.7334 36.2171L65.1156 37.0034L64.4977 37.7897C67.5285 40.171 69.0716 43.5212 69.0716 47.9774H70.0716ZM65.1156 37.0034L65.7472 36.2282C62.3134 33.4302 57.3896 32.1094 51.1326 32.1094V33.1094V34.1094C57.1476 34.1094 61.5457 35.3846 64.4839 37.7786L65.1156 37.0034ZM51.1326 33.1094V32.1094H30.9546V33.1094V34.1094H51.1326V33.1094ZM30.9546 33.1094H29.9546V62.6684H30.9546H31.9546V33.1094H30.9546ZM141.26 146.92H140.26V147.92H141.26V146.92ZM141.26 5.32041V4.32041H140.26V5.32041H141.26ZM171.173 5.32041H172.173V4.32041H171.173V5.32041ZM171.173 118.6H170.173V119.6H171.173V118.6ZM229.76 118.6H230.76V117.6H229.76V118.6ZM229.76 146.92V147.92H230.76V146.92H229.76ZM141.26 146.92H142.26V5.32041H141.26H140.26V146.92H141.26ZM141.26 5.32041V6.32041H171.173V5.32041V4.32041H141.26V5.32041ZM171.173 5.32041H170.173V118.6H171.173H172.173V5.32041H171.173ZM171.173 118.6V119.6H229.76V118.6V117.6H171.173V118.6ZM229.76 118.6H228.76V146.92H229.76H230.76V118.6H229.76ZM229.76 146.92V145.92H141.26V146.92V147.92H229.76V146.92ZM257.584 5.32041V4.32041H256.584V5.32041H257.584ZM287.497 5.32041H288.497V4.32041H287.497V5.32041ZM293.338 116.122L292.566 116.759L292.574 116.768L293.338 116.122ZM325.729 115.945L324.95 115.318L324.948 115.321L325.729 115.945ZM331.57 5.32041V4.32041H330.57V5.32041H331.57ZM360.244 5.32041H361.244V4.32041H360.244V5.32041ZM346.969 136.477L346.248 135.784L346.243 135.789L346.969 136.477ZM270.682 136.477L269.956 137.166L269.961 137.171L270.682 136.477ZM257.584 5.32041V6.32041H287.497V5.32041V4.32041H257.584V5.32041ZM287.497 5.32041H286.497V96.2984H287.497H288.497V5.32041H287.497ZM287.497 96.2984H286.497C286.497 104.937 288.476 111.801 292.566 116.759L293.338 116.122L294.109 115.486C290.411 111.004 288.497 104.652 288.497 96.2984H287.497ZM293.338 116.122L292.574 116.768C296.685 121.627 302.351 124.025 309.445 124.025V123.025V122.025C302.85 122.025 297.778 119.822 294.101 115.476L293.338 116.122ZM309.445 123.025V124.025C316.77 124.025 322.51 121.569 326.51 116.57L325.729 115.945L324.948 115.321C321.395 119.761 316.279 122.025 309.445 122.025V123.025ZM325.729 115.945L326.508 116.572C330.593 111.497 332.57 104.459 332.57 95.5904H331.57H330.57C330.57 104.185 328.652 110.718 324.95 115.318L325.729 115.945ZM331.57 95.5904H332.57V5.32041H331.57H330.57V95.5904H331.57ZM331.57 5.32041V6.32041H360.244V5.32041V4.32041H331.57V5.32041ZM360.244 5.32041H359.244V97.1834H360.244H361.244V5.32041H360.244ZM360.244 97.1834H359.244C359.244 114.005 354.866 126.822 346.248 135.784L346.969 136.477L347.69 137.171C356.771 127.725 361.244 114.346 361.244 97.1834H360.244ZM346.969 136.477L346.243 135.789C337.754 144.737 325.367 149.283 308.914 149.283V150.283V151.283C325.737 151.283 338.72 146.625 347.694 137.166L346.969 136.477ZM308.914 150.283V149.283C292.461 149.283 280.012 144.738 271.403 135.784L270.682 136.477L269.961 137.171C279.052 146.625 292.09 151.283 308.914 151.283V150.283ZM270.682 136.477L271.407 135.789C262.904 126.827 258.584 114.008 258.584 97.1834H257.584H256.584C256.584 114.343 260.995 127.72 269.956 137.166L270.682 136.477ZM257.584 97.1834H258.584V5.32041H257.584H256.584V97.1834H257.584ZM392.138 146.92H391.138V147.92H392.138V146.92ZM392.138 5.32041V4.32041H391.138V5.32041H392.138ZM471.788 10.8074L471.329 11.6959L471.341 11.7018L471.788 10.8074ZM488.249 26.2064L487.384 26.7074L487.389 26.7165L487.395 26.7254L488.249 26.2064ZM488.249 71.1644L489.086 71.7117L489.091 71.7044L488.249 71.1644ZM471.434 85.5014L471.005 84.5983L470.999 84.6011L471.434 85.5014ZM422.051 90.6344V89.6344H421.051V90.6344H422.051ZM422.051 146.92V147.92H423.051V146.92H422.051ZM464.177 146.92L463.311 147.42L463.6 147.92H464.177V146.92ZM428.954 85.8554V84.8554H427.223L428.088 86.3551L428.954 85.8554ZM460.814 85.8554L461.67 85.3373L461.378 84.8554H460.814V85.8554ZM497.807 146.92V147.92H499.582L498.663 146.402L497.807 146.92ZM422.051 65.6774H421.051V66.6774H422.051V65.6774ZM459.398 61.4294L460.063 62.1768L460.064 62.1753L459.398 61.4294ZM459.398 37.8884L458.719 38.6222L458.733 38.6352L458.747 38.6477L459.398 37.8884ZM422.051 33.4634V32.4634H421.051V33.4634H422.051ZM392.138 146.92H393.138V5.32041H392.138H391.138V146.92H392.138ZM392.138 5.32041V6.32041H446.831V5.32041V4.32041H392.138V5.32041ZM446.831 5.32041V6.32041C456.261 6.32041 464.417 8.12439 471.329 11.6958L471.788 10.8074L472.247 9.91898C465 6.17442 456.517 4.32041 446.831 4.32041V5.32041ZM471.788 10.8074L471.341 11.7018C478.25 15.1561 483.59 20.1539 487.384 26.7074L488.249 26.2064L489.115 25.7054C485.121 18.8069 479.487 13.5387 472.236 9.91298L471.788 10.8074ZM488.249 26.2064L487.395 26.7254C491.298 33.1553 493.267 40.6994 493.267 49.3934H494.267H495.267C495.267 40.3874 493.224 32.4735 489.104 25.6874L488.249 26.2064ZM494.267 49.3934H493.267C493.267 57.4841 491.305 64.5492 487.408 70.6245L488.249 71.1644L489.091 71.7044C493.218 65.2716 495.267 57.8227 495.267 49.3934H494.267ZM488.249 71.1644L487.412 70.6172C483.51 76.586 478.052 81.2481 471.005 84.5983L471.434 85.5014L471.864 86.4045C479.213 82.9108 484.965 78.0148 489.086 71.7117L488.249 71.1644ZM471.434 85.5014L470.999 84.6011C464.078 87.9464 456.03 89.6344 446.831 89.6344V90.6344V91.6344C456.276 91.6344 464.631 89.9004 471.869 86.4018L471.434 85.5014ZM446.831 90.6344V89.6344H422.051V90.6344V91.6344H446.831V90.6344ZM422.051 90.6344H421.051V146.92H422.051H423.051V90.6344H422.051ZM422.051 146.92V145.92H392.138V146.92V147.92H422.051V146.92ZM464.177 146.92L465.043 146.421L429.82 85.3558L428.954 85.8554L428.088 86.3551L463.311 147.42L464.177 146.92ZM428.954 85.8554V86.8554H460.814V85.8554V84.8554H428.954V85.8554ZM460.814 85.8554L459.959 86.3735L496.952 147.439L497.807 146.92L498.663 146.402L461.67 85.3373L460.814 85.8554ZM497.807 146.92V145.92H464.177V146.92V147.92H497.807V146.92ZM422.051 65.6774V66.6774H446.123V65.6774V64.6774H422.051V65.6774ZM446.123 65.6774V66.6774C451.95 66.6774 456.64 65.2187 460.063 62.1768L459.398 61.4294L458.734 60.682C455.784 63.3041 451.624 64.6774 446.123 64.6774V65.6774ZM459.398 61.4294L460.064 62.1753C463.607 59.0119 465.354 54.7736 465.354 49.5704H464.354H463.354C463.354 54.2793 461.797 57.9469 458.732 60.6835L459.398 61.4294ZM464.354 49.5704H465.354C465.354 44.3677 463.607 40.1787 460.049 37.1291L459.398 37.8884L458.747 38.6477C461.798 41.2621 463.354 44.8611 463.354 49.5704H464.354ZM459.398 37.8884L460.078 37.1546C456.656 33.9865 451.96 32.4634 446.123 32.4634V33.4634V34.4634C451.614 34.4634 455.768 35.8903 458.719 38.6222L459.398 37.8884ZM446.123 33.4634V32.4634H422.051V33.4634V34.4634H446.123V33.4634ZM422.051 33.4634H421.051V65.6774H422.051H423.051V33.4634H422.051ZM523.153 146.92H522.153V147.92H523.153V146.92ZM523.153 5.32041V4.32041H522.153V5.32041H523.153ZM602.803 10.8074L602.344 11.6959L602.356 11.7018L602.803 10.8074ZM619.264 26.2064L618.398 26.7074L618.404 26.7165L618.409 26.7254L619.264 26.2064ZM619.264 71.1644L620.101 71.7117L620.106 71.7044L619.264 71.1644ZM602.449 85.5014L602.019 84.5983L602.014 84.6011L602.449 85.5014ZM553.066 90.6344V89.6344H552.066V90.6344H553.066ZM553.066 146.92V147.92H554.066V146.92H553.066ZM595.192 146.92L594.326 147.42L594.614 147.92H595.192V146.92ZM559.969 85.8554V84.8554H558.238L559.103 86.3551L559.969 85.8554ZM591.829 85.8554L592.684 85.3373L592.392 84.8554H591.829V85.8554ZM628.822 146.92V147.92H630.597L629.677 146.402L628.822 146.92ZM553.066 65.6774H552.066V66.6774H553.066V65.6774ZM590.413 61.4294L591.077 62.1768L591.079 62.1753L590.413 61.4294ZM590.413 37.8884L589.733 38.6222L589.747 38.6352L589.762 38.6477L590.413 37.8884ZM553.066 33.4634V32.4634H552.066V33.4634H553.066ZM523.153 146.92H524.153V5.32041H523.153H522.153V146.92H523.153ZM523.153 5.32041V6.32041H577.846V5.32041V4.32041H523.153V5.32041ZM577.846 5.32041V6.32041C587.276 6.32041 595.431 8.12439 602.344 11.6958L602.803 10.8074L603.262 9.91898C596.014 6.17442 587.532 4.32041 577.846 4.32041V5.32041ZM602.803 10.8074L602.356 11.7018C609.264 15.1561 614.604 20.1539 618.398 26.7074L619.264 26.2064L620.129 25.7054C616.135 18.8069 610.502 13.5387 603.25 9.91298L602.803 10.8074ZM619.264 26.2064L618.409 26.7254C622.313 33.1553 624.282 40.6994 624.282 49.3934H625.282H626.282C626.282 40.3874 624.239 32.4735 620.119 25.6874L619.264 26.2064ZM625.282 49.3934H624.282C624.282 57.4841 622.319 64.5492 618.422 70.6245L619.264 71.1644L620.106 71.7044C624.232 65.2716 626.282 57.8227 626.282 49.3934H625.282ZM619.264 71.1644L618.427 70.6172C614.524 76.586 609.066 81.2481 602.019 84.5983L602.449 85.5014L602.878 86.4045C610.227 82.9108 615.98 78.0148 620.101 71.7117L619.264 71.1644ZM602.449 85.5014L602.014 84.6011C595.092 87.9464 587.045 89.6344 577.846 89.6344V90.6344V91.6344C587.291 91.6344 595.645 89.9004 602.884 86.4018L602.449 85.5014ZM577.846 90.6344V89.6344H553.066V90.6344V91.6344H577.846V90.6344ZM553.066 90.6344H552.066V146.92H553.066H554.066V90.6344H553.066ZM553.066 146.92V145.92H523.153V146.92V147.92H553.066V146.92ZM595.192 146.92L596.058 146.421L560.835 85.3558L559.969 85.8554L559.103 86.3551L594.326 147.42L595.192 146.92ZM559.969 85.8554V86.8554H591.829V85.8554V84.8554H559.969V85.8554ZM591.829 85.8554L590.974 86.3735L627.967 147.439L628.822 146.92L629.677 146.402L592.684 85.3373L591.829 85.8554ZM628.822 146.92V145.92H595.192V146.92V147.92H628.822V146.92ZM553.066 65.6774V66.6774H577.138V65.6774V64.6774H553.066V65.6774ZM577.138 65.6774V66.6774C582.965 66.6774 587.655 65.2187 591.077 62.1768L590.413 61.4294L589.748 60.682C586.799 63.3041 582.639 64.6774 577.138 64.6774V65.6774ZM590.413 61.4294L591.079 62.1753C594.622 59.0119 596.369 54.7736 596.369 49.5704H595.369H594.369C594.369 54.2793 592.812 57.9469 589.747 60.6835L590.413 61.4294ZM595.369 49.5704H596.369C596.369 44.3677 594.621 40.1787 591.064 37.1291L590.413 37.8884L589.762 38.6477C592.812 41.2621 594.369 44.8611 594.369 49.5704H595.369ZM590.413 37.8884L591.092 37.1546C587.671 33.9865 582.975 32.4634 577.138 32.4634V33.4634V34.4634C582.629 34.4634 586.783 35.8903 589.733 38.6222L590.413 37.8884ZM577.138 33.4634V32.4634H553.066V33.4634V34.4634H577.138V33.4634ZM553.066 33.4634H552.066V65.6774H553.066H554.066V33.4634H553.066ZM675.761 5.32041L676.662 4.88611L676.389 4.32041H675.761V5.32041ZM699.656 54.8804L700.644 54.723L700.621 54.5782L700.557 54.4461L699.656 54.8804ZM701.603 67.0934L700.616 67.2508L700.75 68.0934H701.603V67.0934ZM704.789 67.0934V68.0934H705.643L705.777 67.2508L704.789 67.0934ZM706.736 54.8804L705.838 54.4409L705.772 54.5753L705.749 54.723L706.736 54.8804ZM730.985 5.32041V4.32041H730.361L730.087 4.88091L730.985 5.32041ZM760.898 5.32041L761.793 5.76762L762.516 4.32041H760.898V5.32041ZM717.179 92.7584L716.285 92.3112L716.179 92.5223V92.7584H717.179ZM717.179 146.92V147.92H718.179V146.92H717.179ZM687.266 146.92H686.266V147.92H687.266V146.92ZM687.266 92.7584H688.266V92.5232L688.162 92.3126L687.266 92.7584ZM643.724 5.32041V4.32041H642.109L642.829 5.76617L643.724 5.32041ZM675.761 5.32041L674.861 5.75471L698.756 55.3147L699.656 54.8804L700.557 54.4461L676.662 4.88611L675.761 5.32041ZM699.656 54.8804L698.669 55.0378L700.616 67.2508L701.603 67.0934L702.591 66.936L700.644 54.723L699.656 54.8804ZM701.603 67.0934V68.0934H704.789V67.0934V66.0934H701.603V67.0934ZM704.789 67.0934L705.777 67.2508L707.724 55.0378L706.736 54.8804L705.749 54.723L703.802 66.936L704.789 67.0934ZM706.736 54.8804L707.635 55.3199L731.884 5.75991L730.985 5.32041L730.087 4.88091L705.838 54.4409L706.736 54.8804ZM730.985 5.32041V6.32041H760.898V5.32041V4.32041H730.985V5.32041ZM760.898 5.32041L760.004 4.8732L716.285 92.3112L717.179 92.7584L718.074 93.2056L761.793 5.76762L760.898 5.32041ZM717.179 92.7584H716.179V146.92H717.179H718.179V92.7584H717.179ZM717.179 146.92V145.92H687.266V146.92V147.92H717.179V146.92ZM687.266 146.92H688.266V92.7584H687.266H686.266V146.92H687.266ZM687.266 92.7584L688.162 92.3126L644.62 4.87465L643.724 5.32041L642.829 5.76617L686.371 93.2042L687.266 92.7584ZM643.724 5.32041V6.32041H675.761V5.32041V4.32041H643.724V5.32041ZM792.262 146.92H791.262V147.92H792.262V146.92ZM792.262 5.32041V4.32041H791.262V5.32041H792.262ZM884.833 5.32041H885.833V4.32041H884.833V5.32041ZM884.833 33.6404V34.6404H885.833V33.6404H884.833ZM822.175 33.6404V32.6404H821.175V33.6404H822.175ZM822.175 66.7394H821.175V67.7394H822.175V66.7394ZM875.983 66.7394H876.983V65.7394H875.983V66.7394ZM875.983 92.5814V93.5814H876.983V92.5814H875.983ZM822.175 92.5814V91.5814H821.175V92.5814H822.175ZM822.175 146.92V147.92H823.175V146.92H822.175ZM792.262 146.92H793.262V5.32041H792.262H791.262V146.92H792.262ZM792.262 5.32041V6.32041H884.833V5.32041V4.32041H792.262V5.32041ZM884.833 5.32041H883.833V33.6404H884.833H885.833V5.32041H884.833ZM884.833 33.6404V32.6404H822.175V33.6404V34.6404H884.833V33.6404ZM822.175 33.6404H821.175V66.7394H822.175H823.175V33.6404H822.175ZM822.175 66.7394V67.7394H875.983V66.7394V65.7394H822.175V66.7394ZM875.983 66.7394H874.983V92.5814H875.983H876.983V66.7394H875.983ZM875.983 92.5814V91.5814H822.175V92.5814V93.5814H875.983V92.5814ZM822.175 92.5814H821.175V146.92H822.175H823.175V92.5814H822.175ZM822.175 146.92V145.92H792.262V146.92V147.92H822.175V146.92ZM907.17 146.92L906.194 146.701L905.92 147.92H907.17V146.92ZM939.03 5.32041V4.32041H938.23L938.054 5.10089L939.03 5.32041ZM988.944 5.32041L989.919 5.10089L989.744 4.32041H988.944V5.32041ZM1020.8 146.92V147.92H1022.05L1021.78 146.701L1020.8 146.92ZM990.714 146.92L989.736 147.133L989.907 147.92H990.714V146.92ZM964.695 27.0914L965.672 26.8792L965.501 26.0914H964.695V27.0914ZM961.686 27.0914V26.0914H960.882L960.709 26.8765L961.686 27.0914ZM935.313 146.92V147.92H936.116L936.289 147.135L935.313 146.92ZM930.711 105.502H929.711V106.502H930.711V105.502ZM930.711 77.1824V76.1824H929.711V77.1824H930.711ZM997.263 77.1824H998.263V76.1824H997.263V77.1824ZM997.263 105.502V106.502H998.263V105.502H997.263ZM907.17 146.92L908.145 147.14L940.005 5.53992L939.03 5.32041L938.054 5.10089L906.194 146.701L907.17 146.92ZM939.03 5.32041V6.32041H988.944V5.32041V4.32041H939.03V5.32041ZM988.944 5.32041L987.968 5.53992L1019.83 147.14L1020.8 146.92L1021.78 146.701L989.919 5.10089L988.944 5.32041ZM1020.8 146.92V145.92H990.714V146.92V147.92H1020.8V146.92ZM990.714 146.92L991.691 146.708L965.672 26.8792L964.695 27.0914L963.717 27.3036L989.736 147.133L990.714 146.92ZM964.695 27.0914V26.0914H961.686V27.0914V28.0914H964.695V27.0914ZM961.686 27.0914L960.709 26.8765L934.336 146.705L935.313 146.92L936.289 147.135L962.662 27.3063L961.686 27.0914ZM935.313 146.92V145.92H907.17V146.92V147.92H935.313V146.92ZM930.711 105.502H931.711V77.1824H930.711H929.711V105.502H930.711ZM930.711 77.1824V78.1824H997.263V77.1824V76.1824H930.711V77.1824ZM997.263 77.1824H996.263V105.502H997.263H998.263V77.1824H997.263ZM997.263 105.502V104.502H930.711V105.502V106.502H997.263V105.502ZM1057.12 131.521L1057.93 130.929L1057.12 131.521ZM1057.48 20.7194L1058.28 21.3218L1057.48 20.7194ZM1125.62 8.3294L1125.13 9.19764L1125.62 8.3294ZM1143.15 26.9144L1142.26 27.377L1142.26 27.387L1143.15 26.9144ZM1150.58 56.4734V57.4734H1151.63L1151.58 56.4224L1150.58 56.4734ZM1123.32 56.4734L1122.34 56.6646L1122.5 57.4734H1123.32V56.4734ZM1114.65 36.1184L1113.88 36.7643L1113.89 36.7749L1113.9 36.7852L1114.65 36.1184ZM1079.6 40.8974L1080.48 41.3819L1080.48 41.3763L1079.6 40.8974ZM1079.25 111.52L1078.36 111.978L1078.36 111.984L1079.25 111.52ZM1112.17 116.653L1111.43 115.978L1111.43 115.983L1111.42 115.989L1112.17 116.653ZM1120.67 97.7144V96.7144H1119.86L1119.69 97.5077L1120.67 97.7144ZM1147.92 97.7144L1148.92 97.7781L1148.99 96.7144H1147.92V97.7144ZM1140.49 126.211L1141.37 126.69L1141.37 126.685L1140.49 126.211ZM1123.14 144.088L1122.65 143.218L1122.65 143.221L1123.14 144.088ZM1097.48 150.283V149.283C1080.05 149.283 1066.92 143.142 1057.93 130.929L1057.12 131.521L1056.32 132.114C1065.74 144.917 1079.51 151.283 1097.48 151.283V150.283ZM1057.12 131.521L1057.93 130.929C1048.9 118.666 1044.32 100.447 1044.32 76.1204H1043.32H1042.32C1042.32 100.646 1046.93 119.361 1056.32 132.114L1057.12 131.521ZM1043.32 76.1204H1044.32C1044.32 51.798 1049.02 33.5833 1058.28 21.3218L1057.48 20.7194L1056.68 20.117C1047.05 32.8715 1042.32 51.5908 1042.32 76.1204H1043.32ZM1057.48 20.7194L1058.28 21.3218C1067.49 9.10809 1081.04 2.9574 1099.07 2.9574V1.9574V0.957397C1080.53 0.957397 1066.34 7.31471 1056.68 20.117L1057.48 20.7194ZM1099.07 1.9574V2.9574C1109.2 2.9574 1117.87 5.05169 1125.13 9.19764L1125.62 8.3294L1126.12 7.46116C1118.51 3.11111 1109.48 0.957397 1099.07 0.957397V1.9574ZM1125.62 8.3294L1125.13 9.19764C1132.38 13.3436 1138.09 19.3919 1142.26 27.377L1143.15 26.9144L1144.03 26.4518C1139.7 18.1529 1133.73 11.8112 1126.12 7.46116L1125.62 8.3294ZM1143.15 26.9144L1142.26 27.387C1146.54 35.3702 1149 45.0715 1149.58 56.5244L1150.58 56.4734L1151.58 56.4224C1150.98 44.7473 1148.48 34.7426 1144.03 26.4418L1143.15 26.9144ZM1150.58 56.4734V55.4734H1123.32V56.4734V57.4734H1150.58V56.4734ZM1123.32 56.4734L1124.3 56.2822C1122.52 47.1068 1119.57 40.1237 1115.39 35.4516L1114.65 36.1184L1113.9 36.7852C1117.75 41.0811 1120.59 47.668 1122.34 56.6646L1123.32 56.4734ZM1114.65 36.1184L1115.41 35.4725C1111.31 30.6271 1105.83 28.2154 1099.07 28.2154V29.2154V30.2154C1105.29 30.2154 1110.2 32.4057 1113.88 36.7643L1114.65 36.1184ZM1099.07 29.2154V28.2154C1094.55 28.2154 1090.56 29.2246 1087.14 31.2784C1083.72 33.3317 1080.92 36.3954 1078.72 40.4185L1079.6 40.8974L1080.48 41.3763C1082.53 37.6114 1085.1 34.8341 1088.17 32.9934C1091.24 31.1532 1094.86 30.2154 1099.07 30.2154V29.2154ZM1079.6 40.8974L1078.73 40.4129C1074.35 48.3074 1072.23 60.2552 1072.23 76.1204H1073.23H1074.23C1074.23 60.3616 1076.35 48.8274 1080.48 41.3819L1079.6 40.8974ZM1073.23 76.1204H1072.23C1072.23 91.9829 1074.24 103.976 1078.36 111.978L1079.25 111.52L1080.14 111.062C1076.24 103.489 1074.23 91.882 1074.23 76.1204H1073.23ZM1079.25 111.52L1078.36 111.984C1080.43 115.943 1083.07 118.966 1086.28 120.995C1089.5 123.026 1093.25 124.025 1097.48 124.025V123.025V122.025C1093.57 122.025 1090.21 121.107 1087.35 119.303C1084.49 117.498 1082.08 114.768 1080.13 111.057L1079.25 111.52ZM1097.48 123.025V124.025C1103.76 124.025 1108.94 121.793 1112.92 117.318L1112.17 116.653L1111.42 115.989C1107.85 120.01 1103.23 122.025 1097.48 122.025V123.025ZM1112.17 116.653L1112.91 117.329C1116.97 112.9 1119.85 106.395 1121.64 97.9211L1120.67 97.7144L1119.69 97.5077C1117.94 105.79 1115.16 111.911 1111.43 115.978L1112.17 116.653ZM1120.67 97.7144V98.7144H1147.92V97.7144V96.7144H1120.67V97.7144ZM1147.92 97.7144L1146.93 97.6507C1146.23 108.633 1143.78 117.985 1139.61 125.738L1140.49 126.211L1141.37 126.685C1145.7 118.626 1148.21 108.98 1148.92 97.7781L1147.92 97.7144ZM1140.49 126.211L1139.61 125.733C1135.45 133.366 1129.8 139.185 1122.65 143.218L1123.14 144.088L1123.64 144.959C1131.12 140.732 1137.04 134.633 1141.37 126.69L1140.49 126.211ZM1123.14 144.088L1122.65 143.221C1115.63 147.249 1107.25 149.283 1097.48 149.283V150.283V151.283C1107.53 151.283 1116.27 149.188 1123.64 144.956L1123.14 144.088ZM1183.18 146.92H1182.18V147.92H1183.18V146.92ZM1183.18 5.32041V4.32041H1182.18V5.32041H1183.18ZM1275.75 5.32041H1276.75V4.32041H1275.75V5.32041ZM1275.75 31.1624V32.1624H1276.75V31.1624H1275.75ZM1213.09 31.1624V30.1624H1212.09V31.1624H1213.09ZM1213.09 63.7304H1212.09V64.7304H1213.09V63.7304ZM1266.9 63.7304H1267.9V62.7304H1266.9V63.7304ZM1266.9 88.8644V89.8644H1267.9V88.8644H1266.9ZM1213.09 88.8644V87.8644H1212.09V88.8644H1213.09ZM1213.09 121.078H1212.09V122.078H1213.09V121.078ZM1273.98 121.078H1274.98V120.078H1273.98V121.078ZM1273.98 146.92V147.92H1274.98V146.92H1273.98ZM1183.18 146.92H1184.18V5.32041H1183.18H1182.18V146.92H1183.18ZM1183.18 5.32041V6.32041H1275.75V5.32041V4.32041H1183.18V5.32041ZM1275.75 5.32041H1274.75V31.1624H1275.75H1276.75V5.32041H1275.75ZM1275.75 31.1624V30.1624H1213.09V31.1624V32.1624H1275.75V31.1624ZM1213.09 31.1624H1212.09V63.7304H1213.09H1214.09V31.1624H1213.09ZM1213.09 63.7304V64.7304H1266.9V63.7304V62.7304H1213.09V63.7304ZM1266.9 63.7304H1265.9V88.8644H1266.9H1267.9V63.7304H1266.9ZM1266.9 88.8644V87.8644H1213.09V88.8644V89.8644H1266.9V88.8644ZM1213.09 88.8644H1212.09V121.078H1213.09H1214.09V88.8644H1213.09ZM1213.09 121.078V122.078H1273.98V121.078V120.078H1213.09V121.078ZM1273.98 121.078H1272.98V146.92H1273.98H1274.98V121.078H1273.98ZM1273.98 146.92V145.92H1183.18V146.92V147.92H1273.98V146.92Z" fill="#CF2F2F" mask="url(#path-1-outside-1_173_211)"/>
</g>
</svg>
