<svg width="33" height="33" viewBox="0 0 33 33" fill="none" xmlns="http://www.w3.org/2000/svg">
<path d="M16.4086 0.0371094C7.57228 0.0371094 0.408691 7.20051 0.408691 16.0368C0.408691 24.8735 7.57228 32.0363 16.4086 32.0363C25.2459 32.0363 32.4087 24.8735 32.4087 16.0368C32.4087 7.20108 25.2459 0.0378736 16.4084 0.0378736L16.4086 0.0371094ZM23.746 23.1133C23.4595 23.5833 22.8442 23.7323 22.3742 23.4438C18.6176 21.1492 13.8885 20.6295 8.31913 21.902C7.78245 22.0243 7.24748 21.688 7.1252 21.1511C7.00235 20.6142 7.33728 20.0793 7.8753 19.957C13.9701 18.564 19.1981 19.1641 23.4155 21.7415C23.8855 22.03 24.0345 22.6433 23.746 23.1133ZM25.7044 18.7562C25.3433 19.3437 24.5752 19.529 23.9887 19.1679C19.6879 16.5238 13.1321 15.7583 8.04515 17.3024C7.38542 17.5017 6.68863 17.1299 6.4884 16.4713C6.2897 15.8116 6.66169 15.1161 7.32027 14.9155C13.131 13.1524 20.3547 14.0064 25.2936 17.0414C25.8802 17.4025 26.0655 18.1704 25.7044 18.7562ZM25.8725 14.2197C20.7158 11.1568 12.208 10.8752 7.28454 12.3694C6.49394 12.6092 5.65786 12.1629 5.41827 11.3723C5.17869 10.5813 5.62462 9.7458 6.4158 9.50545C12.0675 7.78973 21.4629 8.12122 27.3999 11.6457C28.1125 12.0677 28.3456 12.9862 27.9234 13.6963C27.503 14.4075 26.5821 14.6419 25.8733 14.2197H25.8725Z" fill="white"/>
</svg>
