<svg width="37" height="37" viewBox="0 0 37 37" fill="none" xmlns="http://www.w3.org/2000/svg">
<g clip-path="url(#clip0_39_287)">
<path d="M36.0501 10.8373C36.0501 10.8373 35.6985 8.35527 34.6157 7.26543C33.2446 5.83105 31.7118 5.82402 31.0087 5.73965C25.9743 5.37402 18.4157 5.37402 18.4157 5.37402H18.4017C18.4017 5.37402 10.8431 5.37402 5.80869 5.73965C5.10557 5.82402 3.57275 5.83105 2.20166 7.26543C1.11885 8.35527 0.774316 10.8373 0.774316 10.8373C0.774316 10.8373 0.408691 13.7553 0.408691 16.6662V19.3943C0.408691 22.3053 0.767285 25.2232 0.767285 25.2232C0.767285 25.2232 1.11885 27.7053 2.19463 28.7951C3.56572 30.2295 5.36572 30.1803 6.16729 30.335C9.0501 30.6092 18.4087 30.6936 18.4087 30.6936C18.4087 30.6936 25.9743 30.6795 31.0087 30.3209C31.7118 30.2365 33.2446 30.2295 34.6157 28.7951C35.6985 27.7053 36.0501 25.2232 36.0501 25.2232C36.0501 25.2232 36.4087 22.3123 36.4087 19.3943V16.6662C36.4087 13.7553 36.0501 10.8373 36.0501 10.8373ZM14.6892 22.7061V12.5881L24.4134 17.6646L14.6892 22.7061Z" fill="white"/>
</g>
<defs>
<clipPath id="clip0_39_287">
<rect width="36" height="36" fill="white" transform="translate(0.408691 0.0371094)"/>
</clipPath>
</defs>
</svg>
