<svg width="20" height="20" viewBox="0 0 20 20" fill="none" xmlns="http://www.w3.org/2000/svg">
<path d="M0.380154 18.5666L4.46058 14.4929C3.16144 12.9579 2.37422 10.9764 2.37422 8.81207C2.37422 3.95285 6.32703 0 11.1862 0C16.0455 0 20 3.95367 20 8.81289C20 13.6721 16.0463 17.625 11.1879 17.625C9.09652 17.625 7.17469 16.8889 5.66234 15.667L1.56769 19.755C1.40406 19.9178 1.18918 20 0.974335 20C0.759491 20 0.544647 19.9178 0.380154 19.7533C0.0528488 19.426 0.053709 18.8947 0.380154 18.5666ZM11.1879 15.9464C15.1214 15.9464 18.3215 12.7464 18.3215 8.81289C18.3215 4.87937 15.1215 1.67934 11.1879 1.67934C7.25437 1.67934 4.05437 4.87937 4.05437 8.81289C4.05437 12.7464 7.25441 15.9464 11.1879 15.9464Z" fill="#FFD800"/>
</svg>
