<svg width="1337" height="262" viewBox="0 0 1337 262" fill="none" xmlns="http://www.w3.org/2000/svg">
<g opacity="0.6">
<mask id="path-1-outside-1_173_204" maskUnits="userSpaceOnUse" x="0" y="-0.640137" width="1337" height="262" fill="black">
<rect fill="white" y="-0.640137" width="1337" height="262"/>
<path d="M54.5288 7.15986L99.9518 216.353H105.205L151.246 7.15986H200.377L144.757 254.36H57.6188L1.99884 7.15986H54.5288ZM255.13 254.36V7.15986H416.737V52.2738H307.351V109.13H401.287V153.008H307.351V209.246H413.647V254.36H255.13ZM521.24 186.689C523.918 195.341 528.553 201.933 535.145 206.465C541.943 210.997 550.595 213.263 561.101 213.263C572.225 213.263 580.98 210.688 587.366 205.538C593.752 200.182 596.945 192.972 596.945 183.908C596.945 177.316 594.679 171.857 590.147 167.531C585.821 163.205 579.744 160.424 571.916 159.188L541.016 154.553C519.18 151.051 502.391 142.914 490.649 130.142C478.907 117.164 473.036 100.272 473.036 79.4658C473.036 63.3978 476.641 49.5958 483.851 38.0598C491.061 26.3179 501.258 17.2539 514.442 10.8678C527.832 4.48184 543.591 1.28884 561.719 1.28884C579.847 1.28884 595.503 4.48184 608.687 10.8678C622.077 17.0479 632.48 26.1119 639.896 38.0598C647.312 49.8019 651.535 64.1189 652.565 81.0108H603.743C601.065 70.2989 596.121 62.1619 588.911 56.5998C581.907 51.0378 572.843 48.2568 561.719 48.2568C549.977 48.2568 540.707 50.9348 533.909 56.2909C527.317 61.4408 524.021 68.6508 524.021 77.9209C524.021 84.5129 526.184 90.0749 530.51 94.6069C535.042 98.9329 541.325 101.714 549.359 102.95L579.95 107.585C601.992 111.087 618.781 119.327 630.317 132.305C642.059 145.077 647.93 161.763 647.93 182.363C647.93 198.225 644.428 212.027 637.424 223.769C630.42 235.511 620.326 244.575 607.142 250.961C594.164 257.141 578.714 260.231 560.792 260.231C542.87 260.231 527.317 257.347 514.133 251.579C501.155 245.811 490.855 237.468 483.233 226.55C475.817 215.426 471.594 202.139 470.564 186.689H521.24ZM749.96 186.689C752.638 195.341 757.273 201.933 763.865 206.465C770.663 210.997 779.315 213.263 789.821 213.263C800.945 213.263 809.7 210.688 816.086 205.538C822.472 200.182 825.665 192.972 825.665 183.908C825.665 177.316 823.399 171.857 818.867 167.531C814.541 163.205 808.464 160.424 800.636 159.188L769.736 154.553C747.9 151.051 731.111 142.914 719.369 130.142C707.627 117.164 701.756 100.272 701.756 79.4658C701.756 63.3978 705.361 49.5958 712.571 38.0598C719.781 26.3179 729.978 17.2539 743.162 10.8678C756.552 4.48184 772.311 1.28884 790.439 1.28884C808.567 1.28884 824.223 4.48184 837.407 10.8678C850.797 17.0479 861.2 26.1119 868.616 38.0598C876.032 49.8019 880.255 64.1189 881.285 81.0108H832.463C829.785 70.2989 824.841 62.1619 817.631 56.5998C810.627 51.0378 801.563 48.2568 790.439 48.2568C778.697 48.2568 769.427 50.9348 762.629 56.2909C756.037 61.4408 752.741 68.6508 752.741 77.9209C752.741 84.5129 754.904 90.0749 759.23 94.6069C763.762 98.9329 770.045 101.714 778.079 102.95L808.67 107.585C830.712 111.087 847.501 119.327 859.037 132.305C870.779 145.077 876.65 161.763 876.65 182.363C876.65 198.225 873.148 212.027 866.144 223.769C859.14 235.511 849.046 244.575 835.862 250.961C822.884 257.141 807.434 260.231 789.512 260.231C771.59 260.231 756.037 257.347 742.853 251.579C729.875 245.811 719.575 237.468 711.953 226.55C704.537 215.426 700.314 202.139 699.284 186.689H749.96ZM941.291 254.36V7.15986H1102.9V52.2738H993.512V109.13H1087.45V153.008H993.512V209.246H1099.81V254.36H941.291ZM1180.83 254.36V7.15986H1233.05V204.92H1335.33V254.36H1180.83Z"/>
</mask>
<path d="M54.5288 7.15986L55.5061 6.94767L55.335 6.15986H54.5288V7.15986ZM99.9518 216.353L98.9746 216.565L99.1457 217.353H99.9518V216.353ZM105.205 216.353V217.353H106.009L106.181 216.568L105.205 216.353ZM151.246 7.15986V6.15986H150.442L150.269 6.94492L151.246 7.15986ZM200.377 7.15986L201.352 7.37937L201.627 6.15986H200.377V7.15986ZM144.757 254.36V255.36H145.557L145.732 254.579L144.757 254.36ZM57.6188 254.36L56.6432 254.579L56.8188 255.36H57.6188V254.36ZM1.99884 7.15986V6.15986H0.748842L1.02323 7.37937L1.99884 7.15986ZM54.5288 7.15986L53.5516 7.37205L98.9746 216.565L99.9518 216.353L100.929 216.141L55.5061 6.94767L54.5288 7.15986ZM99.9518 216.353V217.353H105.205V216.353V215.353H99.9518V216.353ZM105.205 216.353L106.181 216.568L152.222 7.3748L151.246 7.15986L150.269 6.94492L104.228 216.138L105.205 216.353ZM151.246 7.15986V8.15986H200.377V7.15986V6.15986H151.246V7.15986ZM200.377 7.15986L199.401 6.94035L143.781 254.14L144.757 254.36L145.732 254.579L201.352 7.37937L200.377 7.15986ZM144.757 254.36V253.36H57.6188V254.36V255.36H144.757V254.36ZM57.6188 254.36L58.5945 254.14L2.97445 6.94035L1.99884 7.15986L1.02323 7.37937L56.6432 254.579L57.6188 254.36ZM1.99884 7.15986V8.15986H54.5288V7.15986V6.15986H1.99884V7.15986ZM255.13 254.36H254.13V255.36H255.13V254.36ZM255.13 7.15986V6.15986H254.13V7.15986H255.13ZM416.737 7.15986H417.737V6.15986H416.737V7.15986ZM416.737 52.2738V53.2738H417.737V52.2738H416.737ZM307.351 52.2738V51.2738H306.351V52.2738H307.351ZM307.351 109.13H306.351V110.13H307.351V109.13ZM401.287 109.13H402.287V108.13H401.287V109.13ZM401.287 153.008V154.008H402.287V153.008H401.287ZM307.351 153.008V152.008H306.351V153.008H307.351ZM307.351 209.246H306.351V210.246H307.351V209.246ZM413.647 209.246H414.647V208.246H413.647V209.246ZM413.647 254.36V255.36H414.647V254.36H413.647ZM255.13 254.36H256.13V7.15986H255.13H254.13V254.36H255.13ZM255.13 7.15986V8.15986H416.737V7.15986V6.15986H255.13V7.15986ZM416.737 7.15986H415.737V52.2738H416.737H417.737V7.15986H416.737ZM416.737 52.2738V51.2738H307.351V52.2738V53.2738H416.737V52.2738ZM307.351 52.2738H306.351V109.13H307.351H308.351V52.2738H307.351ZM307.351 109.13V110.13H401.287V109.13V108.13H307.351V109.13ZM401.287 109.13H400.287V153.008H401.287H402.287V109.13H401.287ZM401.287 153.008V152.008H307.351V153.008V154.008H401.287V153.008ZM307.351 153.008H306.351V209.246H307.351H308.351V153.008H307.351ZM307.351 209.246V210.246H413.647V209.246V208.246H307.351V209.246ZM413.647 209.246H412.647V254.36H413.647H414.647V209.246H413.647ZM413.647 254.36V253.36H255.13V254.36V255.36H413.647V254.36ZM521.24 186.689L522.195 186.393L521.977 185.689H521.24V186.689ZM535.145 206.465L534.578 207.289L534.584 207.293L534.59 207.297L535.145 206.465ZM587.366 205.538L587.993 206.316L588.001 206.31L588.008 206.304L587.366 205.538ZM590.147 167.531L589.439 168.238L589.448 168.246L589.456 168.254L590.147 167.531ZM571.916 159.188L572.072 158.2L572.064 158.199L571.916 159.188ZM541.016 154.553L540.857 155.54L540.867 155.542L541.016 154.553ZM490.649 130.142L489.907 130.813L489.912 130.819L490.649 130.142ZM483.851 38.0598L484.699 38.5899L484.703 38.5831L483.851 38.0598ZM514.442 10.8679L514.011 9.96523L514.006 9.96786L514.442 10.8679ZM608.687 10.8679L608.251 11.7678L608.259 11.7719L608.268 11.7758L608.687 10.8679ZM639.896 38.0598L639.046 38.5872L639.05 38.5938L639.896 38.0598ZM652.565 81.0108V82.0108H653.627L653.563 80.95L652.565 81.0108ZM603.743 81.0108L602.772 81.2534L602.962 82.0108H603.743V81.0108ZM588.911 56.5999L588.289 57.383L588.3 57.3916L588.911 56.5999ZM533.909 56.2908L534.524 57.0789L534.527 57.0763L533.909 56.2908ZM530.51 94.6069L529.786 95.2973L529.802 95.3141L529.819 95.3302L530.51 94.6069ZM549.359 102.95L549.206 103.938L549.209 103.939L549.359 102.95ZM579.95 107.585L580.106 106.597L580.099 106.596L579.95 107.585ZM630.317 132.305L629.569 132.969L629.575 132.975L629.58 132.982L630.317 132.305ZM637.424 223.769L636.565 223.257L637.424 223.769ZM607.142 250.961L607.571 251.864L607.577 251.861L607.142 250.961ZM514.133 251.579L513.726 252.493L513.732 252.495L514.133 251.579ZM483.233 226.55L482.401 227.105L482.406 227.113L482.413 227.122L483.233 226.55ZM470.564 186.689V185.689H469.495L469.566 186.755L470.564 186.689ZM521.24 186.689L520.284 186.985C523.019 195.821 527.776 202.613 534.578 207.289L535.145 206.465L535.711 205.641C529.329 201.253 524.816 194.86 522.195 186.393L521.24 186.689ZM535.145 206.465L534.59 207.297C541.593 211.966 550.453 214.263 561.101 214.263V213.263V212.263C550.736 212.263 542.292 210.028 535.699 205.633L535.145 206.465ZM561.101 213.263V214.263C572.372 214.263 581.375 211.653 587.993 206.316L587.366 205.538L586.738 204.759C580.584 209.722 572.077 212.263 561.101 212.263V213.263ZM587.366 205.538L588.008 206.304C594.642 200.74 597.945 193.238 597.945 183.908H596.945H595.945C595.945 192.706 592.861 199.624 586.723 204.772L587.366 205.538ZM596.945 183.908H597.945C597.945 177.059 595.578 171.333 590.837 166.807L590.147 167.531L589.456 168.254C593.779 172.381 595.945 177.573 595.945 183.908H596.945ZM590.147 167.531L590.854 166.824C586.339 162.31 580.047 159.459 572.072 158.2L571.916 159.188L571.76 160.176C579.44 161.388 585.302 164.1 589.439 168.238L590.147 167.531ZM571.916 159.188L572.064 158.199L541.164 153.564L541.016 154.553L540.867 155.542L571.767 160.177L571.916 159.188ZM541.016 154.553L541.174 153.565C519.498 150.089 502.937 142.031 491.385 129.465L490.649 130.142L489.912 130.819C501.844 143.797 518.861 152.013 540.857 155.54L541.016 154.553ZM490.649 130.142L491.39 129.471C479.845 116.71 474.036 100.073 474.036 79.4659H473.036H472.036C472.036 100.47 477.968 117.617 489.907 130.813L490.649 130.142ZM473.036 79.4659H474.036C474.036 63.5509 477.605 49.9401 484.699 38.5898L483.851 38.0598L483.003 37.5298C475.676 49.2516 472.036 63.2448 472.036 79.4659H473.036ZM483.851 38.0598L484.703 38.5831C491.806 27.0143 501.854 18.0761 514.878 11.7678L514.442 10.8679L514.006 9.96786C500.661 16.4316 490.315 25.6214 482.998 37.5366L483.851 38.0598ZM514.442 10.8679L514.872 11.7705C528.101 5.4612 543.707 2.28884 561.719 2.28884V1.28884V0.288841C543.474 0.288841 527.562 3.50249 514.011 9.96525L514.442 10.8679ZM561.719 1.28884V2.28884C579.731 2.28884 595.231 5.4614 608.251 11.7678L608.687 10.8679L609.122 9.96786C595.774 3.50229 579.962 0.288841 561.719 0.288841V1.28884ZM608.687 10.8679L608.268 11.7758C621.489 17.878 631.738 26.8138 639.046 38.5872L639.896 38.0598L640.745 37.5325C633.221 25.4099 622.664 16.2177 609.106 9.95989L608.687 10.8679ZM639.896 38.0598L639.05 38.5938C646.359 50.1655 650.544 64.3113 651.566 81.0717L652.565 81.0108L653.563 80.95C652.525 63.9264 648.265 49.4382 640.741 37.5258L639.896 38.0598ZM652.565 81.0108V80.0108H603.743V81.0108V82.0108H652.565V81.0108ZM603.743 81.0108L604.713 80.7683C601.992 69.8859 596.945 61.5349 589.521 55.8081L588.911 56.5999L588.3 57.3916C595.296 62.7888 600.137 70.7118 602.772 81.2534L603.743 81.0108ZM588.911 56.5999L589.532 55.8167C582.312 50.0829 573.012 47.2569 561.719 47.2569V48.2569V49.2569C572.673 49.2569 581.501 51.9928 588.289 57.383L588.911 56.5999ZM561.719 48.2569V47.2569C549.832 47.2569 540.318 49.9681 533.29 55.5054L533.909 56.2908L534.527 57.0763C541.095 51.9016 550.122 49.2569 561.719 49.2569V48.2569ZM533.909 56.2908L533.293 55.5028C526.43 60.8646 523.021 68.3811 523.021 77.9209H524.021H525.021C525.021 68.9206 528.203 62.0171 534.524 57.0789L533.909 56.2908ZM524.021 77.9209H523.021C523.021 84.7552 525.273 90.5689 529.786 95.2973L530.51 94.6069L531.233 93.9164C527.094 89.5808 525.021 84.2705 525.021 77.9209H524.021ZM530.51 94.6069L529.819 95.3302C534.538 99.8343 541.03 102.68 549.206 103.938L549.359 102.95L549.511 101.961C541.619 100.747 535.545 98.0314 531.2 93.8835L530.51 94.6069ZM549.359 102.95L549.209 103.939L579.8 108.574L579.95 107.585L580.099 106.596L549.508 101.961L549.359 102.95ZM579.95 107.585L579.793 108.572C601.673 112.049 618.226 120.208 629.569 132.969L630.317 132.305L631.064 131.641C619.335 118.445 602.31 110.125 580.106 106.597L579.95 107.585ZM630.317 132.305L629.58 132.982C641.122 145.535 646.93 161.964 646.93 182.363H647.93H648.93C648.93 161.562 642.995 144.618 631.053 131.628L630.317 132.305ZM647.93 182.363H646.93C646.93 198.074 643.462 211.693 636.565 223.257L637.424 223.769L638.282 224.281C645.393 212.361 648.93 198.376 648.93 182.363H647.93ZM637.424 223.769L636.565 223.257C629.668 234.819 619.727 243.754 606.706 250.061L607.142 250.961L607.577 251.861C620.924 245.396 631.171 236.203 638.282 224.281L637.424 223.769ZM607.142 250.961L606.712 250.058C593.897 256.16 578.601 259.231 560.792 259.231V260.231V261.231C578.827 261.231 594.43 258.121 607.571 251.864L607.142 250.961ZM560.792 260.231V259.231C542.975 259.231 527.564 256.364 514.533 250.663L514.133 251.579L513.732 252.495C527.069 258.33 542.764 261.231 560.792 261.231V260.231ZM514.133 251.579L514.539 250.665C501.716 244.966 491.563 236.736 484.053 225.977L483.233 226.55L482.413 227.122C490.146 238.2 500.593 246.656 513.726 252.493L514.133 251.579ZM483.233 226.55L484.065 225.995C476.76 215.038 472.582 201.926 471.561 186.622L470.564 186.689L469.566 186.755C470.606 202.352 474.873 215.813 482.401 227.105L483.233 226.55ZM470.564 186.689V187.689H521.24V186.689V185.689H470.564V186.689ZM749.96 186.689L750.915 186.393L750.697 185.689H749.96V186.689ZM763.865 206.465L763.298 207.289L763.304 207.293L763.31 207.297L763.865 206.465ZM816.086 205.538L816.714 206.316L816.721 206.31L816.729 206.304L816.086 205.538ZM818.867 167.531L818.16 168.238L818.168 168.246L818.176 168.254L818.867 167.531ZM800.636 159.188L800.792 158.2L800.784 158.199L800.636 159.188ZM769.736 154.553L769.578 155.54L769.588 155.542L769.736 154.553ZM719.369 130.142L718.627 130.813L718.633 130.819L719.369 130.142ZM712.571 38.0598L713.419 38.5899L713.423 38.5831L712.571 38.0598ZM743.162 10.8679L742.731 9.96523L742.726 9.96786L743.162 10.8679ZM837.407 10.8679L836.971 11.7678L836.979 11.7719L836.988 11.7758L837.407 10.8679ZM868.616 38.0598L867.766 38.5872L867.77 38.5938L868.616 38.0598ZM881.285 81.0108V82.0108H882.348L882.283 80.95L881.285 81.0108ZM832.463 81.0108L831.493 81.2534L831.682 82.0108H832.463V81.0108ZM817.631 56.5999L817.009 57.383L817.02 57.3916L817.631 56.5999ZM762.629 56.2908L763.245 57.0789L763.248 57.0763L762.629 56.2908ZM759.23 94.6069L758.507 95.2973L758.523 95.3141L758.539 95.3302L759.23 94.6069ZM778.079 102.95L777.927 103.938L777.929 103.939L778.079 102.95ZM808.67 107.585L808.827 106.597L808.82 106.596L808.67 107.585ZM859.037 132.305L858.289 132.969L858.295 132.975L858.301 132.982L859.037 132.305ZM866.144 223.769L865.285 223.257L866.144 223.769ZM835.862 250.961L836.292 251.864L836.298 251.861L835.862 250.961ZM742.853 251.579L742.447 252.493L742.452 252.495L742.853 251.579ZM711.953 226.55L711.121 227.105L711.127 227.113L711.133 227.122L711.953 226.55ZM699.284 186.689V185.689H698.215L698.286 186.755L699.284 186.689ZM749.96 186.689L749.005 186.985C751.74 195.821 756.497 202.613 763.298 207.289L763.865 206.465L764.431 205.641C758.049 201.253 753.536 194.86 750.915 186.393L749.96 186.689ZM763.865 206.465L763.31 207.297C770.314 211.966 779.174 214.263 789.821 214.263V213.263V212.263C779.456 212.263 771.012 210.028 764.42 205.633L763.865 206.465ZM789.821 213.263V214.263C801.092 214.263 810.096 211.653 816.714 206.316L816.086 205.538L815.458 204.759C809.304 209.722 800.797 212.263 789.821 212.263V213.263ZM816.086 205.538L816.729 206.304C823.363 200.74 826.665 193.238 826.665 183.908H825.665H824.665C824.665 192.706 821.581 199.624 815.443 204.772L816.086 205.538ZM825.665 183.908H826.665C826.665 177.059 824.298 171.333 819.557 166.807L818.867 167.531L818.176 168.254C822.5 172.381 824.665 177.573 824.665 183.908H825.665ZM818.867 167.531L819.574 166.824C815.06 162.31 808.767 159.459 800.792 158.2L800.636 159.188L800.48 160.176C808.161 161.388 814.022 164.1 818.16 168.238L818.867 167.531ZM800.636 159.188L800.784 158.199L769.884 153.564L769.736 154.553L769.588 155.542L800.488 160.177L800.636 159.188ZM769.736 154.553L769.894 153.565C748.218 150.089 731.657 142.031 720.105 129.465L719.369 130.142L718.633 130.819C730.565 143.797 747.581 152.013 769.578 155.54L769.736 154.553ZM719.369 130.142L720.11 129.471C708.565 116.71 702.756 100.073 702.756 79.4659H701.756H700.756C700.756 100.47 706.689 117.617 718.627 130.813L719.369 130.142ZM701.756 79.4659H702.756C702.756 63.5509 706.325 49.9401 713.419 38.5898L712.571 38.0598L711.723 37.5298C704.397 49.2516 700.756 63.2448 700.756 79.4659H701.756ZM712.571 38.0598L713.423 38.5831C720.527 27.0143 730.574 18.0761 743.598 11.7678L743.162 10.8679L742.726 9.96786C729.381 16.4316 719.035 25.6214 711.719 37.5366L712.571 38.0598ZM743.162 10.8679L743.592 11.7705C756.821 5.4612 772.427 2.28884 790.439 2.28884V1.28884V0.288841C772.194 0.288841 756.282 3.50249 742.731 9.96525L743.162 10.8679ZM790.439 1.28884V2.28884C808.451 2.28884 823.951 5.4614 836.971 11.7678L837.407 10.8679L837.843 9.96786C824.495 3.50229 808.683 0.288841 790.439 0.288841V1.28884ZM837.407 10.8679L836.988 11.7758C850.209 17.878 860.459 26.8138 867.766 38.5872L868.616 38.0598L869.466 37.5325C861.941 25.4099 851.385 16.2177 837.826 9.95989L837.407 10.8679ZM868.616 38.0598L867.77 38.5938C875.079 50.1655 879.265 64.3113 880.287 81.0717L881.285 81.0108L882.283 80.95C881.245 63.9264 876.985 49.4382 869.461 37.5258L868.616 38.0598ZM881.285 81.0108V80.0108H832.463V81.0108V82.0108H881.285V81.0108ZM832.463 81.0108L833.433 80.7683C830.712 69.8859 825.665 61.5349 818.242 55.8081L817.631 56.5999L817.02 57.3916C824.016 62.7888 828.857 70.7118 831.493 81.2534L832.463 81.0108ZM817.631 56.5999L818.253 55.8167C811.032 50.0829 801.732 47.2569 790.439 47.2569V48.2569V49.2569C801.393 49.2569 810.221 51.9928 817.009 57.383L817.631 56.5999ZM790.439 48.2569V47.2569C778.552 47.2569 769.038 49.9681 762.01 55.5054L762.629 56.2908L763.248 57.0763C769.816 51.9016 778.842 49.2569 790.439 49.2569V48.2569ZM762.629 56.2908L762.013 55.5028C755.15 60.8646 751.741 68.3811 751.741 77.9209H752.741H753.741C753.741 68.9206 756.924 62.0171 763.245 57.0789L762.629 56.2908ZM752.741 77.9209H751.741C751.741 84.7552 753.993 90.5689 758.507 95.2973L759.23 94.6069L759.953 93.9164C755.815 89.5808 753.741 84.2705 753.741 77.9209H752.741ZM759.23 94.6069L758.539 95.3302C763.258 99.8343 769.75 102.68 777.927 103.938L778.079 102.95L778.231 101.961C770.339 100.747 764.266 98.0314 759.92 93.8835L759.23 94.6069ZM778.079 102.95L777.929 103.939L808.52 108.574L808.67 107.585L808.82 106.596L778.229 101.961L778.079 102.95ZM808.67 107.585L808.513 108.572C830.393 112.049 846.946 120.208 858.289 132.969L859.037 132.305L859.784 131.641C848.055 118.445 831.031 110.125 808.827 106.597L808.67 107.585ZM859.037 132.305L858.301 132.982C869.842 145.535 875.65 161.964 875.65 182.363H876.65H877.65C877.65 161.562 871.716 144.618 859.773 131.628L859.037 132.305ZM876.65 182.363H875.65C875.65 198.074 872.183 211.693 865.285 223.257L866.144 223.769L867.003 224.281C874.113 212.361 877.65 198.376 877.65 182.363H876.65ZM866.144 223.769L865.285 223.257C858.388 234.819 848.447 243.754 835.426 250.061L835.862 250.961L836.298 251.861C849.644 245.396 859.891 236.203 867.003 224.281L866.144 223.769ZM835.862 250.961L835.432 250.058C822.617 256.16 807.321 259.231 789.512 259.231V260.231V261.231C807.547 261.231 823.151 258.121 836.292 251.864L835.862 250.961ZM789.512 260.231V259.231C771.695 259.231 756.284 256.364 743.254 250.663L742.853 251.579L742.452 252.495C755.789 258.33 771.485 261.231 789.512 261.231V260.231ZM742.853 251.579L743.259 250.665C730.436 244.966 720.284 236.736 712.773 225.977L711.953 226.55L711.133 227.122C718.866 238.2 729.314 246.656 742.447 252.493L742.853 251.579ZM711.953 226.55L712.785 225.995C705.48 215.038 701.302 201.926 700.282 186.622L699.284 186.689L698.286 186.755C699.326 202.352 703.594 215.813 711.121 227.105L711.953 226.55ZM699.284 186.689V187.689H749.96V186.689V185.689H699.284V186.689ZM941.291 254.36H940.291V255.36H941.291V254.36ZM941.291 7.15986V6.15986H940.291V7.15986H941.291ZM1102.9 7.15986H1103.9V6.15986H1102.9V7.15986ZM1102.9 52.2738V53.2738H1103.9V52.2738H1102.9ZM993.512 52.2738V51.2738H992.512V52.2738H993.512ZM993.512 109.13H992.512V110.13H993.512V109.13ZM1087.45 109.13H1088.45V108.13H1087.45V109.13ZM1087.45 153.008V154.008H1088.45V153.008H1087.45ZM993.512 153.008V152.008H992.512V153.008H993.512ZM993.512 209.246H992.512V210.246H993.512V209.246ZM1099.81 209.246H1100.81V208.246H1099.81V209.246ZM1099.81 254.36V255.36H1100.81V254.36H1099.81ZM941.291 254.36H942.291V7.15986H941.291H940.291V254.36H941.291ZM941.291 7.15986V8.15986H1102.9V7.15986V6.15986H941.291V7.15986ZM1102.9 7.15986H1101.9V52.2738H1102.9H1103.9V7.15986H1102.9ZM1102.9 52.2738V51.2738H993.512V52.2738V53.2738H1102.9V52.2738ZM993.512 52.2738H992.512V109.13H993.512H994.512V52.2738H993.512ZM993.512 109.13V110.13H1087.45V109.13V108.13H993.512V109.13ZM1087.45 109.13H1086.45V153.008H1087.45H1088.45V109.13H1087.45ZM1087.45 153.008V152.008H993.512V153.008V154.008H1087.45V153.008ZM993.512 153.008H992.512V209.246H993.512H994.512V153.008H993.512ZM993.512 209.246V210.246H1099.81V209.246V208.246H993.512V209.246ZM1099.81 209.246H1098.81V254.36H1099.81H1100.81V209.246H1099.81ZM1099.81 254.36V253.36H941.291V254.36V255.36H1099.81V254.36ZM1180.83 254.36H1179.83V255.36H1180.83V254.36ZM1180.83 7.15986V6.15986H1179.83V7.15986H1180.83ZM1233.05 7.15986H1234.05V6.15986H1233.05V7.15986ZM1233.05 204.92H1232.05V205.92H1233.05V204.92ZM1335.33 204.92H1336.33V203.92H1335.33V204.92ZM1335.33 254.36V255.36H1336.33V254.36H1335.33ZM1180.83 254.36H1181.83V7.15986H1180.83H1179.83V254.36H1180.83ZM1180.83 7.15986V8.15986H1233.05V7.15986V6.15986H1180.83V7.15986ZM1233.05 7.15986H1232.05V204.92H1233.05H1234.05V7.15986H1233.05ZM1233.05 204.92V205.92H1335.33V204.92V203.92H1233.05V204.92ZM1335.33 204.92H1334.33V254.36H1335.33H1336.33V204.92H1335.33ZM1335.33 254.36V253.36H1180.83V254.36V255.36H1335.33V254.36Z" fill="#CF2F2F" mask="url(#path-1-outside-1_173_204)"/>
</g>
</svg>
